# xmcd CD database file generated by OrangeCD 6.3
#
# Track frame offsets:
#	150
#	11580
#	24705
#	37567
#	53089
#	63647
#	76920
#	91987
#	104900
#	116245
#	128977
#	148162
#	161410
#	180787
#
# Disc length: 2422 seconds
#
# Revision: 0
# Processed by: cddbd v1.5.2PL0 Copyright (c) Steve Scherf et al.
# Submitted via: OrangeCD 6.3
#
DISCID=b509740e
DTITLE=Jump 4 Joy - Cutest Lil' Boogie
DYEAR=2001
DGENRE=
TTITLE0=Shake, Shake
TTITLE1=Jump For Joy
TTITLE2=Square Dance Boogie
TTITLE3=Three Times A Fool
TTITLE4=My Baby's Boogying
TTITLE5=Viscious, Viscious Vodka
TTITLE6=Happy
TTITLE7=Snuff Dipping Mama
TTITLE8=Just 'cause I Left You
TTITLE9=Tell That Woman
TTITLE10=Tee Nah Nah
TTITLE11=Juicy!
TTITLE12=True Love
TTITLE13=Unknown Bonus
EXTD=
EXTT0=
EXTT1=
EXTT2=
EXTT3=
EXTT4=
EXTT5=
EXTT6=
EXTT7=
EXTT8=
EXTT9=
EXTT10=
EXTT11=
EXTT12=
EXTT13=
PLAYORDER=
